<svg width="54" height="54" viewBox="0 0 54 54" fill="none" xmlns="http://www.w3.org/2000/svg">
<path d="M27 12.4453C26.3846 12.4453 25.7944 12.2009 25.3593 11.7657C24.9241 11.3306 24.6797 10.7404 24.6797 10.125V5.0625C24.6797 4.44711 24.9241 3.85693 25.3593 3.42179C25.7944 2.98665 26.3846 2.74219 27 2.74219C27.6154 2.74219 28.2056 2.98665 28.6407 3.42179C29.0758 3.85693 29.3203 4.44711 29.3203 5.0625V10.125C29.3203 10.7404 29.0758 11.3306 28.6407 11.7657C28.2056 12.2009 27.6154 12.4453 27 12.4453ZM27 51.2578C26.3846 51.2578 25.7944 51.0134 25.3593 50.5782C24.9241 50.1431 24.6797 49.5529 24.6797 48.9375V43.875C24.6797 43.2596 24.9241 42.6694 25.3593 42.2343C25.7944 41.7991 26.3846 41.5547 27 41.5547C27.6154 41.5547 28.2056 41.7991 28.6407 42.2343C29.0758 42.6694 29.3203 43.2596 29.3203 43.875V48.9375C29.3203 49.5529 29.0758 50.1431 28.6407 50.5782C28.2056 51.0134 27.6154 51.2578 27 51.2578ZM38.9327 17.3876C38.4739 17.3875 38.0254 17.2514 37.6439 16.9965C37.2625 16.7417 36.9651 16.3794 36.7895 15.9555C36.6138 15.5317 36.5678 15.0652 36.6572 14.6152C36.7466 14.1652 36.9673 13.7518 37.2916 13.4272L40.8713 9.84762C41.3083 9.42194 41.8954 9.18551 42.5055 9.18953C43.1156 9.19355 43.6995 9.43768 44.1309 9.86908C44.5623 10.3005 44.8065 10.8844 44.8105 11.4945C44.8145 12.1046 44.5781 12.6917 44.1524 13.1288L40.5728 16.7084C40.3576 16.924 40.102 17.095 39.8205 17.2116C39.5391 17.3281 39.2374 17.3879 38.9327 17.3876ZM11.4877 44.8327C11.0287 44.8326 10.5801 44.6964 10.1986 44.4414C9.817 44.1864 9.51964 43.8239 9.34409 43.3999C9.16854 42.9759 9.12268 42.5093 9.21231 42.0592C9.30193 41.6091 9.52302 41.1957 9.84762 40.8713L13.4272 37.2916C13.6416 37.0715 13.8976 36.8962 14.1803 36.7758C14.463 36.6554 14.7668 36.5924 15.0741 36.5903C15.3814 36.5883 15.686 36.6473 15.9703 36.764C16.2546 36.8806 16.5128 37.0526 16.7301 37.2699C16.9474 37.4872 17.1193 37.7454 17.236 38.0297C17.3527 38.314 17.4117 38.6186 17.4097 38.9259C17.4076 39.2332 17.3446 39.537 17.2242 39.8197C17.1038 40.1024 16.9285 40.3584 16.7084 40.5728L13.1288 44.1524C12.9135 44.3683 12.6577 44.5395 12.3761 44.6563C12.0945 44.773 11.7925 44.833 11.4877 44.8327ZM48.9375 29.3203H43.875C43.2596 29.3203 42.6694 29.0758 42.2343 28.6407C41.7991 28.2056 41.5547 27.6154 41.5547 27C41.5547 26.3846 41.7991 25.7944 42.2343 25.3593C42.6694 24.9241 43.2596 24.6797 43.875 24.6797H48.9375C49.5529 24.6797 50.1431 24.9241 50.5782 25.3593C51.0134 25.7944 51.2578 26.3846 51.2578 27C51.2578 27.6154 51.0134 28.2056 50.5782 28.6407C50.1431 29.0758 49.5529 29.3203 48.9375 29.3203ZM10.125 29.3203H5.0625C4.44711 29.3203 3.85693 29.0758 3.42179 28.6407C2.98665 28.2056 2.74219 27.6154 2.74219 27C2.74219 26.3846 2.98665 25.7944 3.42179 25.3593C3.85693 24.9241 4.44711 24.6797 5.0625 24.6797H10.125C10.7404 24.6797 11.3306 24.9241 11.7657 25.3593C12.2009 25.7944 12.4453 26.3846 12.4453 27C12.4453 27.6154 12.2009 28.2056 11.7657 28.6407C11.3306 29.0758 10.7404 29.3203 10.125 29.3203ZM42.5123 44.8327C42.2075 44.833 41.9055 44.773 41.6239 44.6563C41.3423 44.5395 41.0865 44.3683 40.8713 44.1524L37.2916 40.5728C36.866 40.1357 36.6295 39.5486 36.6336 38.9385C36.6376 38.3285 36.8817 37.7445 37.3131 37.3131C37.7445 36.8817 38.3285 36.6376 38.9385 36.6336C39.5486 36.6295 40.1357 36.866 40.5728 37.2916L44.1524 40.8713C44.477 41.1957 44.6981 41.6091 44.7877 42.0592C44.8773 42.5093 44.8315 42.9759 44.6559 43.3999C44.4804 43.8239 44.183 44.1864 43.8014 44.4414C43.4199 44.6964 42.9713 44.8326 42.5123 44.8327ZM15.0673 17.3876C14.7626 17.3882 14.4608 17.3285 14.1794 17.2119C13.8979 17.0953 13.6423 16.9242 13.4272 16.7084L9.84762 13.1288C9.42194 12.6917 9.18551 12.1046 9.18953 11.4945C9.19355 10.8844 9.43768 10.3005 9.86908 9.86908C10.3005 9.43768 10.8844 9.19355 11.4945 9.18953C12.1046 9.18551 12.6917 9.42194 13.1288 9.84762L16.7084 13.4272C17.0327 13.7518 17.2534 14.1652 17.3428 14.6152C17.4322 15.0652 17.3862 15.5317 17.2105 15.9555C17.0349 16.3794 16.7375 16.7417 16.3561 16.9965C15.9746 17.2514 15.5261 17.3875 15.0673 17.3876ZM27 37.7578C24.8723 37.7578 22.7924 37.1269 21.0233 35.9448C19.2542 34.7627 17.8753 33.0826 17.0611 31.1168C16.2468 29.1511 16.0338 26.9881 16.4489 24.9013C16.864 22.8144 17.8886 20.8976 19.3931 19.3931C20.8976 17.8886 22.8144 16.864 24.9013 16.4489C26.9881 16.0338 29.1511 16.2468 31.1168 17.0611C33.0826 17.8753 34.7627 19.2542 35.9448 21.0233C37.1269 22.7924 37.7578 24.8723 37.7578 27C37.7545 29.8521 36.62 32.5865 34.6032 34.6032C32.5865 36.62 29.8521 37.7545 27 37.7578Z" fill="#8C3EF1"/>
</svg>
