<svg width="41" height="40" viewBox="0 0 41 40" fill="none" xmlns="http://www.w3.org/2000/svg">
<path d="M18.9666 3.5C11.2999 4.33334 5.13328 10.5 4.29994 18C3.46661 25.8333 7.96661 32.8333 14.7999 35.5C15.2999 35.6667 15.7999 35.3333 15.7999 34.6667V32C15.7999 32 15.1333 32.1667 14.2999 32.1667C11.9666 32.1667 10.9666 30.1667 10.7999 29C10.6333 28.3333 10.2999 27.8333 9.79994 27.3333C9.29994 27.1667 9.13328 27.1667 9.13328 27C9.13328 26.6667 9.63328 26.6667 9.79994 26.6667C10.7999 26.6667 11.6333 27.8333 11.9666 28.3333C12.7999 29.6667 13.7999 30 14.2999 30C14.9666 30 15.4666 29.8333 15.7999 29.6667C15.9666 28.5 16.4666 27.3333 17.4666 26.6667C13.6333 25.8333 10.7999 23.6667 10.7999 20C10.7999 18.1667 11.6333 16.3333 12.7999 15C12.6333 14.6667 12.4666 13.8333 12.4666 12.6667C12.4666 12 12.4666 11.1667 12.7999 10.5C12.7999 10.1667 13.1333 10 13.2999 10H13.4666C14.2999 10.1667 15.9666 10.6667 17.4666 12.1667C18.4666 11.8333 19.6333 11.6667 20.7999 11.6667C21.9666 11.6667 23.1333 11.8333 24.1333 12.1667C25.6333 10.6667 27.4666 10.1667 28.2999 10H28.4666C28.7999 10 28.9666 10.1667 29.1333 10.5C29.1333 11.1667 29.1333 12 29.1333 12.6667C29.1333 14 28.9666 14.6667 28.7999 15C29.9666 16.3333 30.7999 18 30.7999 20C30.7999 23.6667 27.9666 25.8333 24.1333 26.6667C25.1333 27.5 25.7999 29 25.7999 30.5V34.8333C25.7999 35.3333 26.2999 35.8333 26.9666 35.6667C33.1333 33.1667 37.4666 27.1667 37.4666 20.1667C37.4666 10.1667 28.9666 2.33334 18.9666 3.5Z" fill="#F2F5FF"/>
</svg>
